<?xml version="1.0" encoding="UTF-8"?>
<svg xmlns="http://www.w3.org/2000/svg" xmlns:xlink="http://www.w3.org/1999/xlink" viewBox="0 0 447.9 161.29">
  <defs>
    <style>
      .cls-1 {
        fill: #0095d6;
      }

      .cls-1, .cls-2, .cls-3, .cls-4, .cls-5, .cls-6, .cls-7, .cls-8 {
        stroke-width: 0px;
      }

      .cls-9 {
        isolation: isolate;
      }

      .cls-2, .cls-10 {
        fill: none;
      }

      .cls-3 {
        fill: url(#Degradado_sin_nombre_37);
      }

      .cls-4 {
        fill: #fff;
      }

      .cls-10 {
        stroke: #fff;
        stroke-linecap: round;
        stroke-miterlimit: 10;
        stroke-width: 1.42px;
      }

      .cls-11 {
        clip-path: url(#clippath);
      }

      .cls-5 {
        fill: url(#Degradado_sin_nombre_12);
      }

      .cls-5, .cls-7 {
        mix-blend-mode: multiply;
        opacity: .1;
      }

      .cls-6 {
        fill: url(#Degradado_sin_nombre_5);
      }

      .cls-7 {
        fill: #231f20;
      }

      .cls-8 {
        fill: #ffbd27;
      }
    </style>
    <linearGradient id="Degradado_sin_nombre_37" data-name="Degradado sin nombre 37" x1="28.14" y1="-16.81" x2="28.14" y2="-80.64" gradientTransform="translate(8.92 133.3) rotate(-12.39)" gradientUnits="userSpaceOnUse">
      <stop offset="0" stop-color="#0f7caf"/>
      <stop offset="1" stop-color="#0093d3"/>
    </linearGradient>
    <linearGradient id="Degradado_sin_nombre_12" data-name="Degradado sin nombre 12" x1="5.65" y1="-19.14" x2="93.59" y2="-19.14" gradientTransform="translate(8.92 133.3) rotate(-12.39)" gradientUnits="userSpaceOnUse">
      <stop offset="0" stop-color="#231f20"/>
      <stop offset="1" stop-color="#231f20" stop-opacity="0"/>
    </linearGradient>
    <linearGradient id="Degradado_sin_nombre_5" data-name="Degradado sin nombre 5" x1="50.24" y1="26.33" x2="50.24" y2="-46.47" gradientTransform="translate(8.92 133.3) rotate(-12.39)" gradientUnits="userSpaceOnUse">
      <stop offset="0" stop-color="#69addf"/>
      <stop offset="1" stop-color="#0095d6"/>
    </linearGradient>
    <clipPath id="clippath">
      <path class="cls-2" d="m106.41,114.29l-45.28,33.92c-2.09,1.57-4.93,1.67-7.13.26L2.47,115.52l52.52-39.34c2.09-1.57,4.93-1.67,7.13-.26l43.91,28.09c3.69,2.36,3.88,7.67.38,10.29Z"/>
    </clipPath>
  </defs>
  <g class="cls-9">
    <g id="Layer_2" data-name="Layer 2">
      <g id="OBJECTS">
        <g>
          <g>
            <path class="cls-3" d="m11.95,53.83L.14,109.16c-.55,2.55.55,5.18,2.75,6.59h0c1.95,1.25,4.47,1.15,6.32-.23l46.5-34.84c3.1-2.32,2.93-7.03-.34-9.12l-33.92-21.7c-3.69-2.36-8.59-.31-9.5,3.97Z"/>
            <path class="cls-10" d="m53.24,74.91l-33.92-21.7c-.66-.42-1.3-.4-1.71-.31-.7.15-1.54.7-1.76,1.77l-11.81,55.33c-.2.93.21,1.9,1.01,2.41l16.55,10.99"/>
            <path class="cls-1" d="m55.38,71.56l-.81-.52c1,2.25.45,5.07-1.73,6.71L6.33,112.59c-1.67,1.25-3.87,1.44-5.71.56.49,1.04,1.26,1.95,2.27,2.6,1.95,1.25,4.47,1.15,6.32-.23l46.5-34.84c3.1-2.32,2.93-7.03-.34-9.12Z"/>
            <g>
              <line class="cls-10" x1="26.02" y1="62.83" x2="14.21" y2="118.17"/>
              <line class="cls-10" x1="35.46" y1="68.87" x2="23.65" y2="124.21"/>
            </g>
            <g>
              <path class="cls-7" d="m55.38,71.56l-15.2-9.72c-9.7,19.4-21.79,37.29-35.99,53.21l2.38,1.52c.94-.12,1.85-.46,2.65-1.05l46.5-34.84c3.1-2.32,2.93-7.03-.34-9.12Z"/>
              <path class="cls-8" d="m127.33,40.84c-16.23,37.34-42.2,70.77-75.82,96.99-13.89-8.89-27.78-17.77-41.67-26.66C36.94,80.79,56.4,43.19,66.11,1.68c20.41,13.05,40.81,26.11,61.22,39.16Z"/>
              <path class="cls-4" d="m46.5,129.05c-8.21-5.25-16.43-10.51-24.64-15.76,3.05-3.25,2.82-7.64-.37-9.69,20.56-24.95,36.2-54.19,45.88-86.1,4.28,2.74,8.94,1.47,10.24-2.9,11.7,7.49,23.41,14.97,35.11,22.46-1.68,4.13.31,9.64,4.59,12.39-14.03,29.12-34.02,55.58-58.93,77.75-3.2-2.04-8.46-1.16-11.88,1.85Z"/>
              <path class="cls-8" d="m78.91,70.33l2.39,1.53c.71-1.38.69-2.25.14-2.6-.67-.43-1.54.11-2.53,1.07Zm-8.99-.53c.62.4,1.4-.12,2.39-1.04-.83-.53-1.66-1.06-2.49-1.59-.52,1.3-.49,2.25.1,2.63Zm14.85-16.87c-9.49-6.07-20.64-3.02-25.74,6.3-5.08,9.33-3.17,20.74,5.08,26.01,8.22,5.26,20.68,3.05,27-5.49,6.34-8.53,3.13-20.76-6.33-26.82Zm3.16,23.17c-.43.61-.85,1.22-1.28,1.83l-2.32-1.48c-2.98,3.96-5.53,5.51-8.5,6.38-.66-1.66-1.34-3.33-2.04-5.01,2.43-.28,4.52-1.67,6.31-4.08l-2.78-1.78c-2.8,2.98-6.64,6.8-10.94,4.05-3.19-2.04-3.65-6.24-.88-11.61l-2.32-1.48c.38-.64.75-1.29,1.12-1.93.77.49,1.54.98,2.3,1.47,2.74-4.36,5.17-5.62,7.96-6.44.71,1.78,1.39,3.55,2.06,5.31-2.54.33-4.25,1.64-5.75,3.86,1,.64,2,1.28,3,1.92,2.74-3.02,6.33-7.07,11.05-4.05,3.6,2.3,3.5,7.08.67,11.55.78.5,1.56,1,2.33,1.49Z"/>
            </g>
            <path class="cls-5" d="m60.35,70.65c-2.2-1.41-5-1.17-7.02.59l-36.63,31.89c-2.23,2.73-4.51,5.42-6.85,8.05,13.89,8.89,27.78,17.77,41.67,26.66,16.83-13.13,31.74-28.06,44.48-44.38l-35.64-22.8Z"/>
            <g>
              <path class="cls-6" d="m106.41,114.29l-45.28,33.92c-2.09,1.57-4.93,1.67-7.13.26L2.47,115.52l52.52-39.34c2.09-1.57,4.93-1.67,7.13-.26l43.91,28.09c3.69,2.36,3.88,7.67.38,10.29Z"/>
              <g class="cls-11">
                <path class="cls-10" d="m3.43,119.92l53.93-40.56c.26-.2.56-.33.88-.4.6-.13,1.21-.02,1.73.31l43.91,28.09c.91.58,1.04,1.49,1.06,1.85.01.36-.05,1.27-.92,1.92l-53.35,39.97"/>
              </g>
            </g>
          </g>
          <g>
            <path class="cls-1" d="m169.88,34.69h5.18c1.23,0,2.47.06,3.73.17,1.26.11,2.33.26,3.21.43.58.63,1.02,1.24,1.32,1.81-1.35,1.76-2.63,3.74-3.86,5.97-1.23,2.22-2.37,4.52-3.42,6.89s-2.01,4.71-2.85,7.02-1.58,4.45-2.19,6.41c-.62,1.96-1.11,3.67-1.49,5.13-.38,1.46-.6,2.52-.66,3.16-.12,1.05-.16,1.8-.13,2.24.03.44-.1.66-.4.66-.23,0-.7-.15-1.41-.44-.7-.29-1.42-.75-2.15-1.37-.73-.62-1.39-1.4-1.98-2.34-.59-.94-.88-2.06-.88-3.36,0-1.65.23-3.72.7-6.23.47-2.5,1.08-5.08,1.84-7.73s1.64-5.2,2.63-7.64c1-2.44,2.02-4.43,3.07-5.96h-13.17c-.65,0-1.29.03-1.93.09-2.93,9.16-5.55,17.14-7.86,23.97-2.31,6.82-4.45,12.67-6.41,17.54-1.96,4.87-3.84,8.86-5.62,11.98-1.79,3.12-3.57,5.57-5.36,7.35-1.79,1.78-3.68,3.02-5.66,3.72s-4.18,1.05-6.59,1.05c-4.16,0-7.7-1.4-10.63-4.2,0-.4.12-.83.35-1.3.23-.46.5-.78.79-.95.82.98,1.9,1.74,3.25,2.29,1.35.55,2.75.82,4.21.82s2.91-.34,4.17-1.01c1.26-.67,2.49-1.8,3.69-3.37,1.2-1.58,2.4-3.65,3.6-6.22,1.2-2.57,2.5-5.76,3.91-9.55,2.05-5.61,4.17-11.98,6.37-19.1,2.2-7.13,4.43-14.67,6.72-22.61-2.23,0-4.07.17-5.53.52-1.46.35-2.43.58-2.9.69-.23-.29-.43-.69-.57-1.2-.15-.51-.22-.98-.22-1.41.93-.29,2.27-.63,3.99-1.01s3.82-.78,6.28-1.19c1.41-4.22,2.96-8.05,4.65-11.48,1.7-3.43,3.53-6.35,5.49-8.75,1.96-2.41,4.07-4.25,6.32-5.54s4.7-1.94,7.33-1.94c.94,0,1.98.19,3.12.57s2.25.79,3.34,1.23c1.08.44,2.06.85,2.94,1.23.88.38,1.55.57,2.02.57.7-.41,1.68-.78,2.94-1.1,1.26-.32,2.33-.48,3.2-.48.7,0,1.61.38,2.72,1.14-.53.82-1.05,1.93-1.58,3.34-.53,1.4-.94,2.78-1.23,4.13-1.47,4.33-3.02,7.14-4.65,8.43-.29,0-.54-.19-.75-.57-.21-.38-.31-1.04-.31-1.98,0-.64-.15-1.23-.44-1.76-.29-.53-.63-1.05-1.01-1.58s-.72-1.05-1.01-1.58-.44-1.08-.44-1.67c0-.35.03-.78.09-1.27.06-.5.18-1.33.35-2.5-.7-.09-1.39-.13-2.06-.13h-1.98c-2.28,0-4.32.55-6.1,1.64-1.79,1.1-3.38,2.58-4.79,4.46-1.41,1.87-2.66,4.01-3.78,6.4-1.11,2.39-2.11,4.89-2.99,7.48h13.44Z"/>
            <path class="cls-1" d="m192.01,30.38c1.52.47,2.96,1.51,4.3,3.12s2.34,3.38,2.99,5.31c-.65,1.58-1.64,3.48-2.99,5.71s-2.69,4.49-4.04,6.8c-1.35,2.31-2.56,4.51-3.64,6.59-1.08,2.08-1.71,3.79-1.89,5.14.94-1,1.98-2.15,3.12-3.47s2.25-2.63,3.34-3.95c1.08-1.32,2.09-2.52,3.03-3.6.93-1.08,1.67-1.89,2.19-2.41,1.11-1.17,2.43-2.53,3.95-4.08,1.52-1.55,3.12-3.02,4.79-4.39,1.67-1.37,3.35-2.55,5.05-3.51,1.7-.97,3.25-1.45,4.65-1.45,1.52,0,2.8.51,3.82,1.54,1.02,1.02,1.83,2.09,2.42,3.2,0,.12-.22.28-.66.48-.44.21-1.07.78-1.89,1.71-.82,1.05-1.74,2.5-2.77,4.35-1.02,1.84-2.02,3.84-2.99,5.97s-1.77,4.32-2.41,6.54c-.65,2.23-.97,4.25-.97,6.06,0,1.46.19,2.4.57,2.81.38.41.92.61,1.62.61.64,0,1.32-.14,2.02-.44.7-.29,1.26-.44,1.67-.44.23.12.42.37.57.75.15.38.22.72.22,1.01-.47.41-1.02.82-1.67,1.23s-1.32.79-2.02,1.14c-.7.35-1.39.64-2.06.88-.67.23-1.27.35-1.8.35-1.7,0-3.09-.25-4.17-.75-1.08-.5-1.93-1.16-2.55-1.98-.62-.82-1.04-1.8-1.27-2.94-.23-1.14-.35-2.36-.35-3.64,0-.7.06-1.49.18-2.37s.35-1.92.7-3.12c.35-1.2.85-2.63,1.49-4.3.64-1.67,1.46-3.67,2.46-6.01-.12,0-.91.41-2.37,1.23-1.47.82-3.05,2.08-4.74,3.78-2.75,2.63-5.22,5.24-7.42,7.82-2.19,2.58-4.43,5.44-6.72,8.61-1.29,1.81-2.41,3.35-3.38,4.61-.97,1.26-1.8,2.09-2.5,2.5-1.23-.7-2.14-1.68-2.72-2.94-.58-1.26-1.02-2.56-1.32-3.91,0-1.11.16-2.52.48-4.22.32-1.7.76-3.58,1.32-5.66.56-2.08,1.24-4.26,2.06-6.54.82-2.28,1.73-4.57,2.72-6.85,2.23-5.15,4.26-9.19,6.1-12.12s3-4.51,3.47-4.74Z"/>
            <path class="cls-1" d="m239.08,31.97c1.17,0,2.52.35,4.04,1.05,1.52.7,2.87,1.61,4.04,2.72-.29-2.34-.66-4.55-1.1-6.63-.44-2.08-1.08-4.23-1.93-6.45-.85-2.22-1.98-4.65-3.38-7.29-1.4-2.63-3.16-5.65-5.27-9.05.18-.53.57-1.14,1.19-1.84.61-.7,1.32-1.36,2.11-1.98.79-.62,1.61-1.16,2.46-1.63.85-.47,1.65-.76,2.42-.88,1.64,1.81,3.19,4.08,4.65,6.8,1.46,2.72,2.75,5.65,3.86,8.78,1.11,3.13,1.98,6.37,2.59,9.7.62,3.34.92,6.53.92,9.57s-.34,6.18-1.01,9.4c-.67,3.22-1.61,6.37-2.81,9.44-1.2,3.07-2.59,5.99-4.17,8.74-1.58,2.75-3.29,5.21-5.14,7.38-1.84,2.17-3.76,3.94-5.75,5.31-1.99,1.37-3.98,2.24-5.97,2.59-4.04-.47-7.13-1.77-9.26-3.91-2.14-2.14-3.21-5.08-3.21-8.83,0-1.99.31-4.16.92-6.5.61-2.34,1.43-4.67,2.46-6.98,1.02-2.31,2.22-4.57,3.6-6.76,1.37-2.19,2.84-4.17,4.39-5.93,1.55-1.76,3.12-3.25,4.7-4.48,1.58-1.23,3.13-2.02,4.65-2.37Zm-8.96,42.24c2.05-.7,4.1-2.25,6.15-4.65,2.05-2.4,3.89-5.23,5.53-8.48,1.64-3.25,2.97-6.73,4-10.45,1.02-3.72,1.54-7.3,1.54-10.76v-1.84c0-.23-.03-.47-.09-.7-1.41.59-2.9,1.58-4.48,2.99-1.58,1.41-3.16,3.03-4.74,4.88-1.58,1.84-3.07,3.85-4.48,6.01-1.41,2.17-2.66,4.33-3.78,6.5-1.11,2.17-1.99,4.24-2.63,6.23-.65,1.99-.97,3.75-.97,5.27,0,2.93,1.32,4.6,3.95,5.01Z"/>
            <path class="cls-8" d="m145.42,143.33v-63.46h40.65v8.75h-27.44v17.67h22.68v8.75h-22.68v19.3h29.46v9h-42.67Z"/>
            <path class="cls-8" d="m219.75,138.26c-1.83,1.77-3.42,3.05-4.76,3.82s-2.74,1.35-4.2,1.74c-1.46.38-3,.58-4.63.58-4.2,0-7.57-1.31-10.1-3.92-2.53-2.62-3.79-5.82-3.79-9.63,0-4.63,1.89-8.5,5.68-11.6,3.79-3.1,9.93-4.65,18.42-4.65h3.39v-4.29c0-2.89-.8-4.83-2.4-5.83-1.6-1-3.63-1.5-6.09-1.5-4.86,0-9.82,1.4-14.88,4.2v-8.75c5.75-2.17,11.46-3.26,17.15-3.26,3.49,0,6.6.47,9.35,1.42s4.94,2.41,6.58,4.39c1.64,1.99,2.46,4.95,2.46,8.9v20.84c0,2.54.39,4.1,1.18,4.67.78.57,1.57.86,2.34.86.46,0,1.03-.06,1.72-.17l.3,7.12c-2.69.8-5.07,1.2-7.16,1.2-2.35,0-4.37-.39-6.07-1.18-1.7-.79-3.01-2.44-3.92-4.95h-.56Zm0-6.82v-9.56h-3c-4.15,0-7.23.74-9.26,2.21s-3.04,3.31-3.04,5.51c0,1.8.61,3.28,1.84,4.44s2.67,1.74,4.33,1.74c1.49,0,3-.36,4.52-1.09,1.53-.73,3.07-1.81,4.61-3.24Z"/>
            <path class="cls-8" d="m243.04,143.33v-47.08h12.69v8.88c1.52-3.03,3.59-5.45,6.22-7.25,2.63-1.8,5.56-2.7,8.79-2.7.77,0,1.56.09,2.36.26v11.32c-1.77-.66-3.44-.99-5.02-.99-2.51,0-4.8.64-6.86,1.91-2.06,1.27-3.89,3.2-5.49,5.77v29.89h-12.69Z"/>
            <path class="cls-8" d="m277.7,143.33v-47.08h12.69v8.88c2.29-3.63,4.82-6.2,7.59-7.7,2.77-1.5,5.59-2.25,8.45-2.25,3.71,0,6.91,1.19,9.58,3.58,2.67,2.39,4.01,6.15,4.01,11.3v33.28h-12.69v-30.15c0-2.57-.23-4.32-.71-5.23-.47-.92-1.12-1.61-1.93-2.08s-1.72-.71-2.72-.71c-1.74,0-3.56.58-5.44,1.74-1.89,1.16-3.93,3.42-6.13,6.8v29.63h-12.69Z"/>
            <path class="cls-8" d="m330.1,88.31v-10.59h12.69v10.59h-12.69Zm0,55.02v-47.08h12.69v47.08h-12.69Z"/>
            <path class="cls-8" d="m353.39,143.33v-47.08h12.69v8.88c2.29-3.63,4.82-6.2,7.59-7.7,2.77-1.5,5.59-2.25,8.45-2.25,3.71,0,6.91,1.19,9.58,3.58,2.67,2.39,4.01,6.15,4.01,11.3v33.28h-12.69v-30.15c0-2.57-.23-4.32-.71-5.23-.47-.92-1.12-1.61-1.93-2.08s-1.72-.71-2.72-.71c-1.74,0-3.56.58-5.44,1.74-1.89,1.16-3.93,3.42-6.13,6.8v29.63h-12.69Z"/>
            <path class="cls-8" d="m406.14,157.95l1.03-9.22c5.19,2.4,10.13,3.6,14.81,3.6,4.4,0,7.7-.93,9.91-2.79,2.21-1.86,3.32-5.17,3.32-9.95v-6.43c-1.36,3-3.34,5.44-5.94,7.33-2.6,1.89-5.69,2.83-9.27,2.83s-6.83-.91-9.59-2.74c-2.75-1.83-4.87-4.58-6.35-8.26-1.48-3.67-2.22-7.77-2.22-12.28,0-7.06,1.78-12.97,5.33-17.73,3.55-4.76,8.48-7.14,14.78-7.14,1.68,0,3.21.17,4.6.51,1.39.34,2.73.88,4,1.61s2.83,1.97,4.64,3.71l1.32-4.76h11.37v35.93c0,9.49-.92,15.88-2.75,19.17-1.83,3.29-4.63,5.77-8.4,7.44-3.76,1.67-8.09,2.51-12.98,2.51-5.46,0-11.34-1.11-17.64-3.34Zm29.07-32.16v-17.36c-1.81-2.06-3.49-3.44-5.03-4.14-1.54-.7-3.03-1.05-4.48-1.05-3.14,0-5.65,1.46-7.53,4.37-1.88,2.92-2.82,6.86-2.82,11.84,0,4.26.76,7.61,2.27,10.06,1.51,2.44,3.68,3.67,6.51,3.67,2.04,0,3.97-.61,5.81-1.84,1.84-1.23,3.59-3.07,5.26-5.53Z"/>
          </g>
        </g>
      </g>
    </g>
  </g>
</svg>