<?xml version="1.0" encoding="UTF-8"?>
<svg id="Layer_2" data-name="Layer 2" xmlns="http://www.w3.org/2000/svg" xmlns:xlink="http://www.w3.org/1999/xlink" viewBox="0 0 476.54 133.37">
  <defs>
    <style>
      .cls-1 {
        fill: url(#linear-gradient);
      }

      .cls-2 {
        fill: #fff;
      }
    </style>
    <linearGradient id="linear-gradient" x1="3.33" y1="75.54" x2="104.47" y2="75.54" gradientUnits="userSpaceOnUse">
      <stop offset="0" stop-color="#000"/>
      <stop offset="1" stop-color="#040316"/>
    </linearGradient>
  </defs>
  <g id="Layer_1-2" data-name="Layer 1">
    <g>
      <path class="cls-2" d="M58.07,14.58c6.49-.39,12.6,.23,18.81,2.17-4.64,.14-9.26-.59-13.92-.51-3.81-.02-7.68,.29-11.47,.73-2.31,.27-4.64,.83-6.98,.71,4.43-1.67,8.84-2.7,13.56-3.11Z"/>
      <path class="cls-2" d="M15.97,54.81c.35-6.76,5.29-19,10.33-23.48,.79-.7,1.16-.84,2.22-.8-.9,2.23-.84,4.26-.76,6.61-.78,1.51-1.41,3.08-2.05,4.65l-.27-.45c.16-.52,.33-.91,.63-1.36l-.15-.06c-.08,.11-.15,.22-.23,.32-.61,.76-1.98,.95-2.82,1.43-3.37,1.93-2.76,5.05-4.31,7.97-.95,1.79-1.9,3.42-2.29,5.44l-.28-.26Z"/>
      <path class="cls-2" d="M95.13,37c1.5-.11,2.88-.15,4.33,.32,1.87,.61,3.47,1.88,4.36,3.65,.84,1.71,.96,3.68,.31,5.47-.81,2.27-2.64,3.84-4.76,4.88-1.57,.33-3.08,.44-4.6-.17-1.79-.72-3.21-2.13-3.93-3.92-.86-2.06-.98-4.68-.02-6.72,.94-2.01,2.32-2.77,4.31-3.52Z"/>
      <path class="cls-2" d="M376.41,36.53c1.48-.1,2.97,0,4.34,.61,1.83,.8,3.25,2.32,3.92,4.21,.7,1.94,.54,4.08-.42,5.89-1.2,2.29-3.16,3.44-5.54,4.2-1.67,.07-3.27-.17-4.73-1.01-1.87-1.07-3.21-2.87-3.71-4.96-.45-1.87-.13-3.85,.9-5.48,1.23-1.94,3.08-2.93,5.26-3.47Z"/>
      <path class="cls-2" d="M15.97,54.81l.28,.26c.39-2.02,1.34-3.65,2.29-5.44,1.54-2.92,.94-6.04,4.31-7.97,.84-.48,2.22-.67,2.82-1.43,.08-.1,.16-.22,.23-.32l.15,.06c-.3,.46-.47,.84-.63,1.36l.27,.45c-1.37,4.2-2.87,8.33-3.73,12.67-1.27,6.39-1.83,22.16-1.11,28.82-3.24-7.57-5.4-14.58-5.43-22.92,0-1.63-.02-3.87,.48-5.42,.01-.04,.04-.08,.06-.12Z"/>
      <path class="cls-2" d="M81,96.18l-.45-.18c-9.28,5.48-17.15,7.22-27.74,4.49-1.5-.39-3.03-.9-4.56-1.17l-.38-.09-.16-1.26c-.21,2.45-.41,4.9-.59,7.35l.31-.49h.35s.3,1.42,.3,1.42c.21,.26,.41,.43,.72,.58,1.66,.82,3.76,1.16,5.57,1.49,9.48,1.78,17.62,.19,26.68-2.58-.22-3.15-.06-6.4-.05-9.56Zm-17.19,11.8c-2.32-.6-4.52-1.52-6.74-2.41,.58-.8,1.31-1.22,2.15-1.75,2.64-1.23,5.04-.65,7.81-.21,1.02,.21,2.19,.34,3.11,.81-1.69,1.5-4.27,2.63-6.33,3.56Z"/>
      <path class="cls-2" d="M48.75,101.68c3.01,.4,7.88,.78,10.47,2.13-.84,.53-1.56,.95-2.15,1.75-.15-.2-.15-.23-.39-.4-.41-.29-7.32-1.74-7.71-1.68-.19,.47-.04,.33-.33,.52l.1-2.32Z"/>
      <path class="cls-2" d="M48.25,99.32c1.53,.27,3.06,.77,4.56,1.16,10.59,2.73,18.46,1,27.74-4.49l.45,.19c-.28,1.31-.25,2.58-.25,3.9-.02,1.02,.05,2.13-.07,3.14-2.99,.23-7.09,.51-9.97,1.19-.35,.08-.2,.07-.57,0-.93-.47-2.1-.61-3.12-.82-2.77-.44-5.16-1.02-7.81,.21-2.6-1.35-7.46-1.73-10.47-2.13-.16-.79-.32-1.58-.49-2.36Z"/>
      <path class="cls-2" d="M67.03,103.6c1.95-.33,3.96,.11,5.89-.4,1.51-.41,2.94-1.4,4.35-2.08,1.06-.51,2.35-.75,3.49-1.03-.02,1.02,.05,2.13-.07,3.14-2.99,.23-7.09,.51-9.97,1.19-.35,.08-.2,.07-.57,0-.93-.47-2.1-.61-3.12-.82Z"/>
      <path class="cls-2" d="M370.84,56.51c4.49,.03,8.99,.1,13.48-.06,0,1.71,.09,3.49-.05,5.19,.17,4.46,.04,8.97,.04,13.43l.04,25.14c-4.5-.03-8.99-.04-13.49-.02l-.02-40.63v-3.06Z"/>
      <path class="cls-2" d="M370.84,56.51c4.49,.03,8.99,.1,13.48-.06,0,1.71,.09,3.49-.05,5.19-.58-.6-.23-3-.39-3.92-.01-.07-.14-.55-.2-.59-.39-.23-9.9,1.18-11.57,.18l.65-.2c-.38-.11-.15-.08-.68,.04-1.18,1.26-.41,2.38-.84,3.81l-.41-1.38v-3.06Z"/>
      <path class="cls-2" d="M90.52,56.42c4.46,.26,9.02,.07,13.49,0l.06,43.85c-4.48-.28-9.07-.08-13.56-.05,.08-14.6,.09-29.2,.01-43.8Z"/>
      <path class="cls-2" d="M317.03,55.28c1.59,0,3.04,.42,4.57,.83-.31,4.64-.41,9.3-.54,13.94-1.34-.11-2.7-.25-4.04-.22-2.54,.06-5.75,.6-7.53,2.54-.82,.9-1.24,2.01-1.44,3.2-.51,2.95-.18,6.45-.17,9.45,0,5.06-.13,10.11,.08,15.16-4.38,0-8.77,.01-13.15,.06l-.19-.15c-.54-1.89-.12-8.96-.12-11.4l.03-32.19c4.23,.07,8.71,.37,12.91-.24,.12,1.75,.03,3.5-.02,5.25,3.06-2.96,5.34-5.22,9.62-6.23Z"/>
      <path class="cls-2" d="M347.01,55.53c.71-.07,1.42-.11,2.14-.13,3.95-.12,8.14,.8,11.04,3.63,1.92,1.87,3.13,4.34,3.71,6.94,.94,4.23,.49,9.18,.51,13.52l.09,20.72c-4.47-.03-8.94-.03-13.41,0,.03-5.4,.98-26.58-.92-30.05-.66-1.21-1.8-1.95-3.12-2.28-2.61-.66-5.27-.11-7.54,1.22-.12,.11-.25,.23-.37,.35-.43,.43-.64,.81-.71,1.42-.45,3.32-.15,6.98-.15,10.35v18.98s-13.17,.05-13.17,.05V56.47c3.65,.38,7.46,.21,11.14,.22,.02,1.64,.07,3.28,.11,4.91,3.36-3.03,6.16-5.06,10.63-6.07Z"/>
      <path class="cls-2" d="M133.54,55.53c.25-.02,.49-.04,.74-.05,4.22-.15,8.62,.57,11.77,3.64,2.04,1.98,3.2,4.69,3.78,7.44,.96,4.56,.52,9.64,.5,14.3l-.08,19.31c-4.39-.32-8.97,.04-13.39-.01,.08-4.37,.5-27.11-.65-29.57-.55-1.18-1.52-1.99-2.73-2.43-2.69-1-5.12-.35-7.59,.79-.32,.24-.64,.49-.93,.77-.4,.39-.6,.69-.72,1.26-.6,2.8-.16,6.37-.15,9.27v20.04c-4.34-.19-8.72-.06-13.06-.07,.27-14.45,.23-29.07-.23-43.52,3.79-.03,7.58-.02,11.37,.04,.11,1.49,.12,2.98,.16,4.47,3.59-2.68,6.76-4.83,11.21-5.67Z"/>
      <path class="cls-2" d="M402.62,59.22c.2,.45,.12,.25,.3,.75l.13,.37c1.25,.33,2.6-1.17,3.53-1.9,2.64-2.05,6.19-3.06,9.52-3.15,3.63-.09,7.11,1.1,9.74,3.65,1.87,1.81,3.05,4.12,3.68,6.62,1.27,4.97,.8,10.65,.8,15.74v18.91s-13.77-.07-13.77-.07c.54-3.46,.63-28.12-.66-30.22-.79-1.29-2.12-2.03-3.58-2.29-2.98-.52-5.66,.63-8.06,2.26-.32,3.7-.15,7.51-.15,11.22v19.06s-13.46,.02-13.46,.02c.62-14.48,.09-29.11,.13-43.6,3.61,0,7.85-.41,11.36,.24,.41,.77,.42,1.52,.49,2.37Z"/>
      <path class="cls-2" d="M390.77,56.61c3.61,0,7.85-.41,11.36,.24,.41,.77,.42,1.52,.49,2.37l-.18,.08c-.24-.57-.5-1.13-.77-1.7,.16,.69,.29,1.31,.11,2.01-.5-.44-.47-1.11-.6-1.76-2.73-.21-6.51,.4-8.95-.13-.85-.18-1.01-.39-1.46-1.11Z"/>
      <path class="cls-2" d="M288.72,88.73c-.02-4.06-.02-8.12,0-12.18,0-9.76-.93-17.7-12-20.41-2.34-.57-4.75-.79-7.16-.8-5.91,.33-11.74,1.9-15.85,6.43-1.71,1.89-2.85,4.06-3.76,6.41,4.22,1.44,9.08,2.38,13.54,2.69,1.26-2.01,2.26-3.97,4.77-4.53,1.64-.36,3.36-.01,4.73,.96,1.28,.92,2.05,2.23,2.24,3.79,.08,.6,.05,1.1-.05,1.69-1.5,.9-6.93,.33-8.94,.49-7.1,.57-14.86,4.12-16.58,11.71-.81,3.61-.02,6.92,1.68,10.12,2.69,3.58,6.09,5.66,10.56,6.26,4.19,.57,8.76-.21,12.15-2.85,.78-.6,1.48-1.35,2.2-2.03l1.34,3.76c4.47,.14,8.94-.15,13.41,0-2.16-3.6-2.23-7.42-2.28-11.51Zm-13.72-1.66c-2.07,1.98-4.57,2.77-7.37,2.96-.85-.21-1.74-.39-2.46-.92-1.03-.76-1.82-2.07-1.93-3.35-.08-.91,.18-1.77,.81-2.45,1.73-1.87,4.95-1.79,7.3-1.98,1.27-.16,2.6-.11,3.88-.14-.02,1.96-.14,3.92-.23,5.88Z"/>
      <path class="cls-1" d="M31.83,23.16c3.15-3.49,6.54-4.54,11.11-4.76,3.14-.15,6.33,.08,9.47,.13,5.67,.07,11.33,.09,17,.06,6.58-.07,13.12-.92,19.72-.86,.62,2.74,1.36,3.83,3.36,5.8-.34,3.4-.89,14.95-3.17,16.9-1.99,1.71-5.21,1.58-7.68,1.62l-12.83,.07c-9.07,.08-17.59,.23-18.82,11.61l-.03,.25,21.74,.02c4.07,0,8.21-.18,12.26,.15,.24,1.24,.41,2.46,.53,3.71l2.42,1.67c-.5,5.15-.87,10.25-.93,15.42-7.51-.13-15.01-.2-22.52-.2-4.75-.02-9.63,.2-14.35-.3-.48,7.83-.8,15.69-1.41,23.51-.21,2.45-.41,4.9-.59,7.35-.55,2.75-.97,4.84-2.7,7.12,11.1,3.94,23.89,4.51,35.16,.8,3.62-1.19,7.06-3.33,10.8-4.04,.54,.45,1.32,1.34,2.04,1.32,1.33-.03,2.74-.37,4.11-.43,2.65-.11,5.29,.06,7.94-.19-4.05,2.49-7.65,5.56-11.82,7.9-13.07,7.32-29.55,9.44-44.07,5.96-3.19-.76-6.66-1.65-9.61-3.08-7.31,8.3-17.97,11.96-28.8,12.63-.39,.02-.77,.04-1.16,.05-1.02-1.16-2-2.25-3.21-3.22l.35-.26c-.95-.8-1.88-1.63-2.78-2.48-.25-.95,.76-11.6,1.13-12.86,1.39-1.04,4.24-.97,5.98-1.45,1.21-.34,2.41-.82,3.59-1.25l.19,.2s.03-.01,.03-.02c.06-.09,.1-.19,.16-.28l.11,.14c-1.71,1.86-6.66,2.39-9.08,2.9-.19,.29-.2,.29-.35,.67-.57,1.44-1.51,11.11-.94,12.26,.29,.59,1.59,1.01,2.18,1.14,1.49,.34,2.98,.52,4.28-.33,1.02-.64,3.52-.81,4.76-1.09,6.32-1.43,12.82-4.12,17.57-8.65,3.65-3.48,7.12-8.42,8.72-13.23,2.1-6.32,2.65-28.01,2.87-35.53,12.38,.5,24.82,.09,37.2,.28,.37-4.94,.39-9.91,.87-14.84-12.43,.27-24.9,.04-37.34,0,.51-3.52,.7-7.04,2.13-10.34,1.2-2.76,3.18-5.11,6-6.28,4.35-1.8,10.48-.84,15.12-.81,4.07,.03,8.2,.03,12.24-.44,1.33-.15,4.07-.32,4.97-1.41,1.68-2.01,2.09-14,1.93-16.98-5.78-.14-11.63,.55-17.43,.64-8.9,.13-17.86-.26-26.75-.04-3.91,.1-7.43,.95-10.21,3.87-.53-.08-.98-.3-1.48-.52Z"/>
      <path class="cls-2" d="M48.48,118.29c1.46,.42,3.9,.51,5.06,1.48,.32,.27,.26,.83,.3,1.23-1.36-.22-3.9-.4-4.88-1.35-.53-.51-.48-.68-.47-1.37Z"/>
      <path class="cls-2" d="M67.58,120.09c.95-.06,1.2-.24,1.97,.36l.08-.1-.22-.19,.2,.35-.32,.41c-1.35,.71-2.62,.66-4.11,.67-.8,.08-1.76,.3-2.5-.07-.17-.51-.16-.56-.01-1.08,1.09-.53,3.6-.28,4.91-.35Z"/>
      <path class="cls-2" d="M203.3,39.04c5.7,.48,11.8,.07,17.54,.08,8.42,.01,16.99,.35,25.4-.13v12.49c-9.38,.24-18.83,.42-28.22,.05l.03,11.35c7.98-.63,16.2,.2,24.22-.07-.04,3.97-.06,7.94-.05,11.91-3.17,.01-23.32-.37-24.16,.3l-.03,12.93h28.66c.1,4.08,.07,8.17,.21,12.25-14.58-.08-29.16-.05-43.74,.09,.26-20.41-.14-40.83,.15-61.24Z"/>
      <path class="cls-2" d="M196.08,36.92c-4.56-.17-9.15-.04-13.71-.25,0,7.43-.4,15.08,.03,22.48-4.06-2.73-7.94-4.53-13-3.59-4.08,.76-7.61,2.99-9.93,6.44-4.43,6.56-5.15,16.71-3.62,24.27,1.02,4.98,3.26,9.61,7.59,12.49,1.83,1.22,3.81,1.92,5.92,2.46,4.74,.76,8.98-.4,12.83-3.23,.76-.56,1.49-1.16,2.19-1.79,.18,1.4,.46,2.56,.99,3.89,3.58,.29,7.16,.04,10.74,.17l-.03-63.34Zm-13.88,49.07c-.81,1.68-3.31,2.59-4.97,3.16-1.28,.07-2.54,.14-3.78-.29-1.64-.57-2.91-1.89-3.64-3.44-1.63-3.51-1.76-9.31-.39-12.92,.93-2.46,2.37-3.65,4.71-4.71,1.38-.18,2.55-.21,3.91,.17,1.61,.46,3.47,1.41,4.24,2.99,.75,1.56,.68,13.44-.08,15.04Z"/>
      <path class="cls-2" d="M19.24,106.56c-8.11-7.54-14-17.16-17.02-27.82C-2.17,62.83,0,45.82,8.23,31.51,16.6,16.89,30.53,6.28,46.85,2.08c16.82-4.46,33.66-1.59,48.53,7.14,13.65,8.17,23.55,21.36,27.6,36.74-2.91-.29-5.84-.29-8.75,0-1.63-2.59-2.6-5.36-3.91-8.1-1.45-3.04-3.45-5.82-5.57-8.42-2.38-2.92-4.94-5.88-7.83-8.3-7.71-6.45-19.02-10.92-28.99-11.88-13.63-1.31-27.99,2.77-38.54,11.61-10.2,8.55-17.95,21.4-19.12,34.79-.98,11.16,1.21,24.29,7,33.99,1.56,2.61,3.52,4.9,5.47,7.23,.65-10.11,1.9-20.27,2.91-30.36,.91-9.2,1.58-18.44,2.77-27.6-.1-.88-.01-1.16-.65-1.8-.08-2.35-.14-4.38,.76-6.61l.35,.03,.4-.68c.04-2.44,1.25-4.74,2.56-6.72,.49,.21,.94,.43,1.48,.52-3.74,5.83-3.36,13.78-4.01,20.5l-3.17,33.29c-.64,7.09-.99,15.09-2.42,22-.49,2.47-1.41,4.83-2.7,6.98-2.84,4.72-7.36,7.12-12.61,8.27-1.06,.23-2.12,.44-3.19,.62-.13,2.32-1.18,10.57-.28,12.32,1.71,1.03,3.79,.85,5.73,.86-1.3,.85-2.79,.67-4.28,.33-.6-.14-1.89-.55-2.18-1.14-.57-1.15,.37-10.82,.94-12.26,.15-.38,.16-.37,.35-.67,2.42-.51,7.37-1.05,9.08-2.9l-.11-.14c-.05,.09-.1,.19-.16,.28,0,0-.02,.01-.03,.02l-.19-.2c-1.18,.43-2.38,.92-3.59,1.25-1.73,.48-4.59,.41-5.98,1.45-.37,1.26-1.38,11.91-1.13,12.86,.91,.85,1.83,1.68,2.78,2.48l-.35,.26c-1.12-.74-2.02-1.47-2.96-2.43,0-4.52,.74-9.25,.99-13.8,7.03-1.16,10.58-1.87,15.42-7.36Z"/>
      <path class="cls-2" d="M29.27,29.88c-.12,3.03-.4,6.06-.86,9.06-.1-.88-.01-1.16-.65-1.8-.08-2.35-.14-4.38,.76-6.61l.35,.03,.4-.68Z"/>
      <path class="cls-2" d="M111.26,31.85c.3,.1,.53,.17,.77,.41,1.24,1.22,3.05,5.26,3.02,6.94l-.56-.07c-1.47-1.36-3.1-5.31-3.23-7.28Z"/>
      <path class="cls-2" d="M68.04,5.48c2.23,.28,4.93,.36,6.97,1.31,.36,.55,.25,.6,.12,1.25-1.64-.48-6.31-.58-7.3-1.71l.21-.85Z"/>
      <path class="cls-2" d="M57.1,5.58c.56,.12,.51,.16,.89,.53l-.07,.53c-1.43,.75-3.92,.58-5.6,.95l-.29,.07-.72,.1-.34-.34,.11-.54c1.39-1.23,4.25-1.15,6.02-1.29Z"/>
      <path class="cls-2" d="M476.53,56.73c-1.71-.19-10.24-.52-11.44,.25-.08,.05-.14,.12-.2,.18l-.45,3.59c-3.6-2.96-7.2-5.32-12.02-5.48-4.22-.14-8.4,1.6-11.45,4.49-4.72,4.48-6.52,11.58-6.68,17.89-.16,6.66,1.45,14.31,6.25,19.24,2.97,3.04,7.29,4.96,11.55,4.97,4.86,0,7.75-2.42,10.96-5.69-.8,3.2-.6,6.48-2.94,9.11-1.49,1.67-3.48,2.43-5.69,2.52-4.26,.18-8.37-1.92-11.45-4.71-2.78,3.06-5.59,6.01-8.56,8.89,5.94,4.24,11.2,7.77,18.76,7.97,5.88,.16,12.27-1.78,16.58-5.88,2.94-2.8,4.77-6.39,5.66-10.33,1.38-6.11,.61-17.66,.61-24.27,0-7.61,.32-15.14,.51-22.74Zm-14.19,30.62c-2.14,1.21-3.98,1.98-6.39,2.47-1.21,0-2.41-.08-3.49-.69-1.97-1.1-3.02-3.06-3.58-5.17-1.02-3.77-.89-9.64,1.15-13.05,1.28-2.15,2.73-2.85,5.09-3.39,2.79-.18,4.75,.46,7.14,1.82,.5,5.89,.11,12.09,.08,18.01Z"/>
      <path class="cls-2" d="M464.89,57.15c.07-.06,.13-.12,.2-.17,1.2-.78,9.73-.44,11.44-.25-1.24,1.08-1.85,1.2-3.47,1.09-.92-.07-1.84-.24-2.76-.24-1.56,.01-3.01,.33-4.56,.04-.46,.29-.39,.46-.54,.96-.27-.52-.26-.84-.32-1.43Z"/>
      <path class="cls-2" d="M33.31,23.67c2.79-2.91,6.31-3.77,10.21-3.87,8.89-.22,17.84,.17,26.75,.04,5.8-.09,11.64-.78,17.43-.64,.16,2.97-.25,14.97-1.93,16.98-.91,1.08-3.65,1.26-4.97,1.41-4.04,.47-8.17,.47-12.24,.44-4.64-.03-10.77-.99-15.12,.81-2.83,1.17-4.81,3.52-6,6.28-1.43,3.31-1.62,6.83-2.13,10.34,12.43,.03,24.91,.26,37.34,0-.48,4.94-.5,9.9-.87,14.84-12.39-.19-24.83,.22-37.2-.28-.22,7.52-.77,29.21-2.87,35.53-1.6,4.81-5.07,9.76-8.72,13.23-4.75,4.52-11.26,7.21-17.57,8.65-1.23,.28-3.74,.45-4.76,1.09-1.94-.01-4.01,.17-5.73-.86-.89-1.74,.15-10,.28-12.32,1.07-.18,2.13-.39,3.19-.62,5.25-1.15,9.77-3.55,12.61-8.27,1.29-2.16,2.21-4.52,2.7-6.98,1.44-6.91,1.78-14.91,2.42-22l3.17-33.29c.65-6.72,.28-14.67,4.01-20.5Z"/>
    </g>
  </g>
</svg>